<?xml version="1.0" encoding="UTF-8" standalone="no"?>
<!DOCTYPE svg PUBLIC "-//W3C//DTD SVG 1.1//EN"
 "http://www.w3.org/Graphics/SVG/1.1/DTD/svg11.dtd">
<!-- Generated by graphviz version 2.26.3 (20100126.1600)
 -->
<!-- Title: G Pages: 1 -->
<svg width="632pt" height="944pt"
 viewBox="0.00 0.00 632.00 944.00" xmlns="http://www.w3.org/2000/svg" xmlns:xlink="http://www.w3.org/1999/xlink">
<g id="graph1" class="graph" transform="scale(1 1) rotate(0) translate(4 940)">
<title>G</title>
<polygon fill="white" stroke="white" points="-4,5 -4,-940 629,-940 629,5 -4,5"/>
<g id="graph2" class="cluster"><title>cluster_global</title>
<polyline fill="none" stroke="gray" points="20,-44 604,-44 "/>
<path fill="none" stroke="gray" d="M604,-44C610,-44 616,-50 616,-56"/>
<polyline fill="none" stroke="gray" points="616,-56 616,-916 "/>
<path fill="none" stroke="gray" d="M616,-916C616,-922 610,-928 604,-928"/>
<polyline fill="none" stroke="gray" points="604,-928 20,-928 "/>
<path fill="none" stroke="gray" d="M20,-928C14,-928 8,-922 8,-916"/>
<polyline fill="none" stroke="gray" points="8,-916 8,-56 "/>
<path fill="none" stroke="gray" d="M8,-56C8,-50 14,-44 20,-44"/>
<text text-anchor="middle" x="312" y="-914.1" font-family="Times Roman,serif" font-size="11.00" fill="gray">global</text>
</g>
<!-- \\Env -->
<g id="node2" class="node"><title>\\Env</title>
<a xlink:href="examples.historics.env.html" xlink:title="Env" target="_parent">
<polygon fill="none" stroke="black" points="505,-898 451,-898 451,-862 505,-862 505,-898"/>
<text text-anchor="middle" x="478" y="-877.1" font-family="Courier,monospace" font-size="11.00">Env</text>
</a>
</g>
<!-- \\EventHandler -->
<g id="node3" class="node"><title>\\EventHandler</title>
<a xlink:href="examples.deletes.html" xlink:title="EventHandler" target="_parent">
<polygon fill="none" stroke="black" points="527,-844 429,-844 429,-808 527,-808 527,-844"/>
<text text-anchor="middle" x="478" y="-823.1" font-family="Courier,monospace" font-size="11.00">EventHandler</text>
</a>
</g>
<!-- \\DataSift_IStreamConsumerEventHandler -->
<g id="node4" class="node"><title>\\DataSift_IStreamConsumerEventHandler</title>
<a xlink:href="lib.DataSift.IStreamConsumerEventHandler.html" xlink:title="DataSift_IStreamConsumerEventHandler" target="_parent">
<polygon fill="none" stroke="black" points="276,-844 16,-844 16,-808 276,-808 276,-844"/>
<text text-anchor="middle" x="146" y="-823.1" font-family="Courier,monospace" font-size="11.00">DataSift_IStreamConsumerEventHandler</text>
</a>
</g>
<!-- \\EventHandler&#45;&gt;\\DataSift_IStreamConsumerEventHandler -->
<g id="edge23" class="edge"><title>\\EventHandler&#45;&gt;\\DataSift_IStreamConsumerEventHandler</title>
<path fill="none" stroke="black" stroke-dasharray="1,5" d="M428.655,-826C390.891,-826 336.84,-826 286.099,-826"/>
<polygon fill="none" stroke="black" points="286.001,-822.5 276.001,-826 286.001,-829.5 286.001,-822.5"/>
</g>
<!-- \\DataSift_StreamConsumer -->
<g id="node5" class="node"><title>\\DataSift_StreamConsumer</title>
<a xlink:href="lib.DataSift.StreamConsumer.html" xlink:title="«abstract»&lt;br/&gt;DataSift_StreamConsumer" target="_parent">
<polygon fill="none" stroke="black" points="232,-682 60,-682 60,-646 232,-646 232,-682"/>
<text text-anchor="start" x="112" y="-669.433" font-family="Courier,monospace" font-size="11.00">«abstract»</text>
<text text-anchor="start" x="68" y="-656.233" font-family="Courier,monospace" font-size="11.00">DataSift_StreamConsumer</text>
</a>
</g>
<!-- \\DataSift_User -->
<g id="node6" class="node"><title>\\DataSift_User</title>
<a xlink:href="lib.DataSift.User.html" xlink:title="DataSift_User" target="_parent">
<polygon fill="none" stroke="black" points="530,-790 426,-790 426,-754 530,-754 530,-790"/>
<text text-anchor="middle" x="478" y="-769.1" font-family="Courier,monospace" font-size="11.00">DataSift_User</text>
</a>
</g>
<!-- \\DataSift_Historic -->
<g id="node7" class="node"><title>\\DataSift_Historic</title>
<a xlink:href="lib.DataSift.Historic.html" xlink:title="DataSift_Historic" target="_parent">
<polygon fill="none" stroke="black" points="543,-736 413,-736 413,-700 543,-700 543,-736"/>
<text text-anchor="middle" x="478" y="-715.1" font-family="Courier,monospace" font-size="11.00">DataSift_Historic</text>
</a>
</g>
<!-- \\DataSift_StreamConsumer_HTTP -->
<g id="node8" class="node"><title>\\DataSift_StreamConsumer_HTTP</title>
<a xlink:href="lib.DataSift.StreamConsumer.HTTP.html" xlink:title="DataSift_StreamConsumer_HTTP" target="_parent">
<polygon fill="none" stroke="black" points="581,-682 375,-682 375,-646 581,-646 581,-682"/>
<text text-anchor="middle" x="478" y="-661.1" font-family="Courier,monospace" font-size="11.00">DataSift_StreamConsumer_HTTP</text>
</a>
</g>
<!-- \\DataSift_StreamConsumer_HTTP&#45;&gt;\\DataSift_StreamConsumer -->
<g id="edge3" class="edge"><title>\\DataSift_StreamConsumer_HTTP&#45;&gt;\\DataSift_StreamConsumer</title>
<path fill="none" stroke="black" d="M374.773,-664C332.657,-664 284.218,-664 242.787,-664"/>
<polygon fill="none" stroke="black" points="242.689,-660.5 232.689,-664 242.689,-667.5 242.689,-660.5"/>
</g>
<!-- \\DataSift_MockApiClient -->
<g id="node9" class="node"><title>\\DataSift_MockApiClient</title>
<a xlink:href="lib.DataSift.MockApiClient.html" xlink:title="DataSift_MockApiClient" target="_parent">
<polygon fill="none" stroke="black" points="560,-628 396,-628 396,-592 560,-592 560,-628"/>
<text text-anchor="middle" x="478" y="-607.1" font-family="Courier,monospace" font-size="11.00">DataSift_MockApiClient</text>
</a>
</g>
<!-- \\DataSift_ApiClient -->
<g id="node10" class="node"><title>\\DataSift_ApiClient</title>
<a xlink:href="lib.DataSift.ApiClient.html" xlink:title="DataSift_ApiClient" target="_parent">
<polygon fill="none" stroke="black" points="547,-574 409,-574 409,-538 547,-538 547,-574"/>
<text text-anchor="middle" x="478" y="-553.1" font-family="Courier,monospace" font-size="11.00">DataSift_ApiClient</text>
</a>
</g>
<!-- \\DataSift_Definition -->
<g id="node11" class="node"><title>\\DataSift_Definition</title>
<a xlink:href="lib.DataSift.Definition.html" xlink:title="DataSift_Definition" target="_parent">
<polygon fill="none" stroke="black" points="550,-520 406,-520 406,-484 550,-484 550,-520"/>
<text text-anchor="middle" x="478" y="-499.1" font-family="Courier,monospace" font-size="11.00">DataSift_Definition</text>
</a>
</g>
<!-- \\DataSift_Exception_StreamError -->
<g id="node12" class="node"><title>\\DataSift_Exception_StreamError</title>
<a xlink:href="lib.DataSift.Exception.StreamError.html" xlink:title="DataSift_Exception_StreamError" target="_parent">
<polygon fill="none" stroke="black" points="587,-412 369,-412 369,-376 587,-376 587,-412"/>
<text text-anchor="middle" x="478" y="-391.1" font-family="Courier,monospace" font-size="11.00">DataSift_Exception_StreamError</text>
</a>
</g>
<!-- \\Exception -->
<g id="node23" class="node"><title>\\Exception</title>
<ellipse fill="none" stroke="black" cx="146" cy="-18" rx="62.9325" ry="18.3848"/>
<text text-anchor="middle" x="146" y="-14.4" font-family="Times Roman,serif" font-size="14.00" fill="gray">\Exception</text>
</g>
<!-- \\DataSift_Exception_StreamError&#45;&gt;\\Exception -->
<g id="edge5" class="edge"><title>\\DataSift_Exception_StreamError&#45;&gt;\\Exception</title>
<path fill="none" stroke="black" d="M368.374,-381.533C360.906,-377.69 353.985,-372.914 348,-367 242.146,-262.403 383.778,-142.614 276,-40 260.472,-25.2159 238.904,-18.3051 217.794,-15.4854"/>
<polygon fill="none" stroke="black" points="218.135,-12.0022 207.825,-14.4386 217.404,-18.9639 218.135,-12.0022"/>
</g>
<!-- \\DataSift_Exception_CompileFailed -->
<g id="node13" class="node"><title>\\DataSift_Exception_CompileFailed</title>
<a xlink:href="lib.DataSift.Exception.CompileFailed.html" xlink:title="DataSift_Exception_CompileFailed" target="_parent">
<polygon fill="none" stroke="black" points="594,-358 362,-358 362,-322 594,-322 594,-358"/>
<text text-anchor="middle" x="478" y="-337.1" font-family="Courier,monospace" font-size="11.00">DataSift_Exception_CompileFailed</text>
</a>
</g>
<!-- \\DataSift_Exception_CompileFailed&#45;&gt;\\Exception -->
<g id="edge7" class="edge"><title>\\DataSift_Exception_CompileFailed&#45;&gt;\\Exception</title>
<path fill="none" stroke="black" d="M361.398,-323.228C356.602,-320.276 352.098,-316.886 348,-313 256.947,-226.657 368.64,-124.638 276,-40 260.388,-25.7365 239.114,-18.9026 218.298,-15.9935"/>
<polygon fill="none" stroke="black" points="218.468,-12.4909 208.143,-14.8653 217.695,-19.4481 218.468,-12.4909"/>
</g>
<!-- \\DataSift_Exception_InvalidData -->
<g id="node14" class="node"><title>\\DataSift_Exception_InvalidData</title>
<a xlink:href="lib.DataSift.Exception.InvalidData.html" xlink:title="DataSift_Exception_InvalidData" target="_parent">
<polygon fill="none" stroke="black" points="587,-304 369,-304 369,-268 587,-268 587,-304"/>
<text text-anchor="middle" x="478" y="-283.1" font-family="Courier,monospace" font-size="11.00">DataSift_Exception_InvalidData</text>
</a>
</g>
<!-- \\DataSift_Exception_InvalidData&#45;&gt;\\Exception -->
<g id="edge9" class="edge"><title>\\DataSift_Exception_InvalidData&#45;&gt;\\Exception</title>
<path fill="none" stroke="black" d="M368.391,-272.545C361.014,-268.909 354.103,-264.451 348,-259 271.58,-190.752 353.674,-106.817 276,-40 260.192,-26.4018 239.174,-19.6955 218.655,-16.698"/>
<polygon fill="none" stroke="black" points="218.99,-13.2132 208.647,-15.5105 218.165,-20.1645 218.99,-13.2132"/>
</g>
<!-- \\DataSift_Exception_NotYetImplemented -->
<g id="node15" class="node"><title>\\DataSift_Exception_NotYetImplemented</title>
<a xlink:href="lib.DataSift.Exception.NotYetImplemented.html" xlink:title="DataSift_Exception_NotYetImplemented" target="_parent">
<polygon fill="none" stroke="black" points="608,-250 348,-250 348,-214 608,-214 608,-250"/>
<text text-anchor="middle" x="478" y="-229.1" font-family="Courier,monospace" font-size="11.00">DataSift_Exception_NotYetImplemented</text>
</a>
</g>
<!-- \\DataSift_Exception_NotYetImplemented&#45;&gt;\\Exception -->
<g id="edge11" class="edge"><title>\\DataSift_Exception_NotYetImplemented&#45;&gt;\\Exception</title>
<path fill="none" stroke="black" d="M361.187,-213.921C356.541,-211.302 352.116,-208.342 348,-205 285.889,-154.561 339.037,-89.2765 276,-40 259.878,-27.3973 239.163,-20.9137 219.029,-17.8124"/>
<polygon fill="none" stroke="black" points="219.262,-14.3137 208.899,-16.5169 218.374,-21.2572 219.262,-14.3137"/>
</g>
<!-- \\DataSift_Exception_RateLimitExceeded -->
<g id="node16" class="node"><title>\\DataSift_Exception_RateLimitExceeded</title>
<a xlink:href="lib.DataSift.Exception.RateLimitExceeded.html" xlink:title="DataSift_Exception_RateLimitExceeded" target="_parent">
<polygon fill="none" stroke="black" points="608,-196 348,-196 348,-160 608,-160 608,-196"/>
<text text-anchor="middle" x="478" y="-175.1" font-family="Courier,monospace" font-size="11.00">DataSift_Exception_RateLimitExceeded</text>
</a>
</g>
<!-- \\DataSift_Exception_RateLimitExceeded&#45;&gt;\\Exception -->
<g id="edge13" class="edge"><title>\\DataSift_Exception_RateLimitExceeded&#45;&gt;\\Exception</title>
<path fill="none" stroke="black" d="M363.728,-159.975C358.229,-157.36 352.946,-154.384 348,-151 299.47,-117.794 325.138,-72.2995 276,-40 259.228,-28.975 238.693,-22.9216 218.942,-19.7274"/>
<polygon fill="none" stroke="black" points="219.407,-16.2586 209.02,-18.3431 218.44,-23.1914 219.407,-16.2586"/>
</g>
<!-- \\DataSift_Exception_APIError -->
<g id="node17" class="node"><title>\\DataSift_Exception_APIError</title>
<a xlink:href="lib.DataSift.Exception.APIError.html" xlink:title="DataSift_Exception_APIError" target="_parent">
<polygon fill="none" stroke="black" points="577,-142 379,-142 379,-106 577,-106 577,-142"/>
<text text-anchor="middle" x="478" y="-121.1" font-family="Courier,monospace" font-size="11.00">DataSift_Exception_APIError</text>
</a>
</g>
<!-- \\DataSift_Exception_APIError&#45;&gt;\\Exception -->
<g id="edge15" class="edge"><title>\\DataSift_Exception_APIError&#45;&gt;\\Exception</title>
<path fill="none" stroke="black" d="M378.476,-108.365C367.957,-105.238 357.606,-101.49 348,-97 311.025,-79.7188 313.289,-56.5916 276,-40 257.924,-31.957 237.234,-26.8373 217.757,-23.5837"/>
<polygon fill="none" stroke="black" points="218.116,-20.0981 207.702,-22.0468 217.059,-27.0177 218.116,-20.0981"/>
</g>
<!-- \\DataSift_Exception_AccessDenied -->
<g id="node18" class="node"><title>\\DataSift_Exception_AccessDenied</title>
<a xlink:href="lib.DataSift.Exception.AccessDenied.html" xlink:title="DataSift_Exception_AccessDenied" target="_parent">
<polygon fill="none" stroke="black" points="591,-88 365,-88 365,-52 591,-52 591,-88"/>
<text text-anchor="middle" x="478" y="-67.1" font-family="Courier,monospace" font-size="11.00">DataSift_Exception_AccessDenied</text>
</a>
</g>
<!-- \\DataSift_Exception_AccessDenied&#45;&gt;\\Exception -->
<g id="edge17" class="edge"><title>\\DataSift_Exception_AccessDenied&#45;&gt;\\Exception</title>
<path fill="none" stroke="black" d="M364.673,-52.25C313.611,-44.2524 255.131,-35.0929 211.503,-28.2595"/>
<polygon fill="none" stroke="black" points="212.01,-24.7962 201.588,-26.7066 210.926,-31.7119 212.01,-24.7962"/>
</g>
<!-- \\DataSift_Push_Subscription -->
<g id="node19" class="node"><title>\\DataSift_Push_Subscription</title>
<a xlink:href="lib.DataSift.Push.Subscription.html" xlink:title="DataSift_Push_Subscription" target="_parent">
<polygon fill="none" stroke="black" points="574,-466 382,-466 382,-430 574,-430 574,-466"/>
<text text-anchor="middle" x="478" y="-445.1" font-family="Courier,monospace" font-size="11.00">DataSift_Push_Subscription</text>
</a>
</g>
<!-- \\DataSift_Push_Definition -->
<g id="node20" class="node"><title>\\DataSift_Push_Definition</title>
<a xlink:href="lib.DataSift.Push.Definition.html" xlink:title="DataSift_Push_Definition" target="_parent">
<polygon fill="none" stroke="black" points="235,-466 57,-466 57,-430 235,-430 235,-466"/>
<text text-anchor="middle" x="146" y="-445.1" font-family="Courier,monospace" font-size="11.00">DataSift_Push_Definition</text>
</a>
</g>
<!-- \\DataSift_Push_Subscription&#45;&gt;\\DataSift_Push_Definition -->
<g id="edge19" class="edge"><title>\\DataSift_Push_Subscription&#45;&gt;\\DataSift_Push_Definition</title>
<path fill="none" stroke="black" d="M381.972,-448C339.244,-448 288.945,-448 245.788,-448"/>
<polygon fill="none" stroke="black" points="245.554,-444.5 235.553,-448 245.553,-451.5 245.554,-444.5"/>
</g>
</g>
</svg>
