<?xml version="1.0" encoding="UTF-8" standalone="no"?>
<!DOCTYPE svg PUBLIC "-//W3C//DTD SVG 1.1//EN"
 "http://www.w3.org/Graphics/SVG/1.1/DTD/svg11.dtd">
<!-- Generated by graphviz version 2.26.3 (20100126.1600)
 -->
<!-- Title: G Pages: 1 -->
<svg width="632pt" height="944pt"
 viewBox="0.00 0.00 632.00 944.00" xmlns="http://www.w3.org/2000/svg" xmlns:xlink="http://www.w3.org/1999/xlink">
<g id="graph1" class="graph" transform="scale(1 1) rotate(0) translate(4 940)">
<title>G</title>
<polygon fill="white" stroke="white" points="-4,5 -4,-940 629,-940 629,5 -4,5"/>
<g id="graph2" class="cluster"><title>cluster_global</title>
<polyline fill="none" stroke="gray" points="20,-44 604,-44 "/>
<path fill="none" stroke="gray" d="M604,-44C610,-44 616,-50 616,-56"/>
<polyline fill="none" stroke="gray" points="616,-56 616,-916 "/>
<path fill="none" stroke="gray" d="M616,-916C616,-922 610,-928 604,-928"/>
<polyline fill="none" stroke="gray" points="604,-928 20,-928 "/>
<path fill="none" stroke="gray" d="M20,-928C14,-928 8,-922 8,-916"/>
<polyline fill="none" stroke="gray" points="8,-916 8,-56 "/>
<path fill="none" stroke="gray" d="M8,-56C8,-50 14,-44 20,-44"/>
<text text-anchor="middle" x="312" y="-914.1" font-family="Times Roman,serif" font-size="11.00" fill="gray">global</text>
</g>
<!-- \\DataSift_StreamConsumer -->
<g id="node2" class="node"><title>\\DataSift_StreamConsumer</title>
<a xlink:href="lib.DataSift.StreamConsumer.html" xlink:title="«abstract»&lt;br/&gt;DataSift_StreamConsumer" target="_parent">
<polygon fill="none" stroke="black" points="232,-898 60,-898 60,-862 232,-862 232,-898"/>
<text text-anchor="start" x="112" y="-885.433" font-family="Courier,monospace" font-size="11.00">«abstract»</text>
<text text-anchor="start" x="68" y="-872.233" font-family="Courier,monospace" font-size="11.00">DataSift_StreamConsumer</text>
</a>
</g>
<!-- \\DataSift_Exception_StreamError -->
<g id="node3" class="node"><title>\\DataSift_Exception_StreamError</title>
<a xlink:href="lib.DataSift.Exception.StreamError.html" xlink:title="DataSift_Exception_StreamError" target="_parent">
<polygon fill="none" stroke="black" points="587,-88 369,-88 369,-52 587,-52 587,-88"/>
<text text-anchor="middle" x="478" y="-67.1" font-family="Courier,monospace" font-size="11.00">DataSift_Exception_StreamError</text>
</a>
</g>
<!-- \\Exception -->
<g id="node22" class="node"><title>\\Exception</title>
<ellipse fill="none" stroke="black" cx="146" cy="-18" rx="62.9325" ry="18.3848"/>
<text text-anchor="middle" x="146" y="-14.4" font-family="Times Roman,serif" font-size="14.00" fill="gray">\Exception</text>
</g>
<!-- \\DataSift_Exception_StreamError&#45;&gt;\\Exception -->
<g id="edge3" class="edge"><title>\\DataSift_Exception_StreamError&#45;&gt;\\Exception</title>
<path fill="none" stroke="black" d="M368.371,-52.8291C316.504,-44.7054 256.305,-35.2767 211.633,-28.2798"/>
<polygon fill="none" stroke="black" points="211.909,-24.7805 201.488,-26.6908 210.825,-31.6961 211.909,-24.7805"/>
</g>
<!-- \\DataSift_Exception_InvalidData -->
<g id="node4" class="node"><title>\\DataSift_Exception_InvalidData</title>
<a xlink:href="lib.DataSift.Exception.InvalidData.html" xlink:title="DataSift_Exception_InvalidData" target="_parent">
<polygon fill="none" stroke="black" points="587,-736 369,-736 369,-700 587,-700 587,-736"/>
<text text-anchor="middle" x="478" y="-715.1" font-family="Courier,monospace" font-size="11.00">DataSift_Exception_InvalidData</text>
</a>
</g>
<!-- \\DataSift_Exception_InvalidData&#45;&gt;\\Exception -->
<g id="edge5" class="edge"><title>\\DataSift_Exception_InvalidData&#45;&gt;\\Exception</title>
<path fill="none" stroke="black" d="M368.263,-706.544C360.718,-702.495 353.816,-697.395 348,-691 152.129,-475.658 475.836,-251.668 276,-40 260.942,-24.0506 238.943,-16.9589 217.308,-14.3285"/>
<polygon fill="none" stroke="black" points="217.362,-10.819 207.086,-13.397 216.727,-17.7901 217.362,-10.819"/>
</g>
<!-- \\DataSift_Exception_CompileFailed -->
<g id="node5" class="node"><title>\\DataSift_Exception_CompileFailed</title>
<a xlink:href="lib.DataSift.Exception.CompileFailed.html" xlink:title="DataSift_Exception_CompileFailed" target="_parent">
<polygon fill="none" stroke="black" points="594,-682 362,-682 362,-646 594,-646 594,-682"/>
<text text-anchor="middle" x="478" y="-661.1" font-family="Courier,monospace" font-size="11.00">DataSift_Exception_CompileFailed</text>
</a>
</g>
<!-- \\DataSift_Exception_CompileFailed&#45;&gt;\\Exception -->
<g id="edge7" class="edge"><title>\\DataSift_Exception_CompileFailed&#45;&gt;\\Exception</title>
<path fill="none" stroke="black" d="M361.284,-648.278C356.451,-645.063 351.977,-641.329 348,-637 167.197,-440.185 460.426,-233.424 276,-40 260.864,-24.1251 238.844,-17.0522 217.216,-14.416"/>
<polygon fill="none" stroke="black" points="217.276,-10.9069 206.998,-13.4801 216.637,-17.8777 217.276,-10.9069"/>
</g>
<!-- \\DataSift_Exception_RateLimitExceeded -->
<g id="node6" class="node"><title>\\DataSift_Exception_RateLimitExceeded</title>
<a xlink:href="lib.DataSift.Exception.RateLimitExceeded.html" xlink:title="DataSift_Exception_RateLimitExceeded" target="_parent">
<polygon fill="none" stroke="black" points="608,-628 348,-628 348,-592 608,-592 608,-628"/>
<text text-anchor="middle" x="478" y="-607.1" font-family="Courier,monospace" font-size="11.00">DataSift_Exception_RateLimitExceeded</text>
</a>
</g>
<!-- \\DataSift_Exception_RateLimitExceeded&#45;&gt;\\Exception -->
<g id="edge9" class="edge"><title>\\DataSift_Exception_RateLimitExceeded&#45;&gt;\\Exception</title>
<path fill="none" stroke="black" d="M357.984,-591.875C354.409,-589.24 351.06,-586.292 348,-583 182.25,-404.695 445.032,-215.197 276,-40 260.839,-24.2858 238.926,-17.228 217.398,-14.5572"/>
<polygon fill="none" stroke="black" points="217.511,-11.0525 207.227,-13.6015 216.856,-18.0218 217.511,-11.0525"/>
</g>
<!-- \\DataSift_Exception_NotYetImplemented -->
<g id="node7" class="node"><title>\\DataSift_Exception_NotYetImplemented</title>
<a xlink:href="lib.DataSift.Exception.NotYetImplemented.html" xlink:title="DataSift_Exception_NotYetImplemented" target="_parent">
<polygon fill="none" stroke="black" points="608,-574 348,-574 348,-538 608,-538 608,-574"/>
<text text-anchor="middle" x="478" y="-553.1" font-family="Courier,monospace" font-size="11.00">DataSift_Exception_NotYetImplemented</text>
</a>
</g>
<!-- \\DataSift_Exception_NotYetImplemented&#45;&gt;\\Exception -->
<g id="edge11" class="edge"><title>\\DataSift_Exception_NotYetImplemented&#45;&gt;\\Exception</title>
<path fill="none" stroke="black" d="M358.044,-537.819C354.452,-535.199 351.084,-532.27 348,-529 197.282,-369.182 429.66,-196.992 276,-40 260.795,-24.4657 238.983,-17.4289 217.558,-14.7229"/>
<polygon fill="none" stroke="black" points="217.725,-11.2229 207.435,-13.7466 217.053,-18.1905 217.725,-11.2229"/>
</g>
<!-- \\DataSift_Exception_APIError -->
<g id="node8" class="node"><title>\\DataSift_Exception_APIError</title>
<a xlink:href="lib.DataSift.Exception.APIError.html" xlink:title="DataSift_Exception_APIError" target="_parent">
<polygon fill="none" stroke="black" points="577,-358 379,-358 379,-322 577,-322 577,-358"/>
<text text-anchor="middle" x="478" y="-337.1" font-family="Courier,monospace" font-size="11.00">DataSift_Exception_APIError</text>
</a>
</g>
<!-- \\DataSift_Exception_APIError&#45;&gt;\\Exception -->
<g id="edge13" class="edge"><title>\\DataSift_Exception_APIError&#45;&gt;\\Exception</title>
<path fill="none" stroke="black" d="M378.482,-331.602C367.226,-327.259 356.698,-321.248 348,-313 256.947,-226.657 368.64,-124.638 276,-40 260.388,-25.7365 239.114,-18.9026 218.298,-15.9935"/>
<polygon fill="none" stroke="black" points="218.468,-12.4909 208.143,-14.8653 217.695,-19.4481 218.468,-12.4909"/>
</g>
<!-- \\DataSift_Exception_AccessDenied -->
<g id="node9" class="node"><title>\\DataSift_Exception_AccessDenied</title>
<a xlink:href="lib.DataSift.Exception.AccessDenied.html" xlink:title="DataSift_Exception_AccessDenied" target="_parent">
<polygon fill="none" stroke="black" points="591,-250 365,-250 365,-214 591,-214 591,-250"/>
<text text-anchor="middle" x="478" y="-229.1" font-family="Courier,monospace" font-size="11.00">DataSift_Exception_AccessDenied</text>
</a>
</g>
<!-- \\DataSift_Exception_AccessDenied&#45;&gt;\\Exception -->
<g id="edge15" class="edge"><title>\\DataSift_Exception_AccessDenied&#45;&gt;\\Exception</title>
<path fill="none" stroke="black" d="M364.867,-215.901C358.871,-212.82 353.189,-209.214 348,-205 285.889,-154.561 339.037,-89.2765 276,-40 259.878,-27.3973 239.163,-20.9137 219.029,-17.8124"/>
<polygon fill="none" stroke="black" points="219.262,-14.3137 208.899,-16.5169 218.374,-21.2572 219.262,-14.3137"/>
</g>
<!-- \\DataSift_Definition -->
<g id="node10" class="node"><title>\\DataSift_Definition</title>
<a xlink:href="lib.DataSift.Definition.html" xlink:title="DataSift_Definition" target="_parent">
<polygon fill="none" stroke="black" points="550,-520 406,-520 406,-484 550,-484 550,-520"/>
<text text-anchor="middle" x="478" y="-499.1" font-family="Courier,monospace" font-size="11.00">DataSift_Definition</text>
</a>
</g>
<!-- \\DataSift_MockApiClient -->
<g id="node11" class="node"><title>\\DataSift_MockApiClient</title>
<a xlink:href="lib.DataSift.MockApiClient.html" xlink:title="DataSift_MockApiClient" target="_parent">
<polygon fill="none" stroke="black" points="560,-466 396,-466 396,-430 560,-430 560,-466"/>
<text text-anchor="middle" x="478" y="-445.1" font-family="Courier,monospace" font-size="11.00">DataSift_MockApiClient</text>
</a>
</g>
<!-- \\DataSift_ApiClient -->
<g id="node12" class="node"><title>\\DataSift_ApiClient</title>
<a xlink:href="lib.DataSift.ApiClient.html" xlink:title="DataSift_ApiClient" target="_parent">
<polygon fill="none" stroke="black" points="547,-412 409,-412 409,-376 547,-376 547,-412"/>
<text text-anchor="middle" x="478" y="-391.1" font-family="Courier,monospace" font-size="11.00">DataSift_ApiClient</text>
</a>
</g>
<!-- \\DataSift_StreamConsumer_HTTP -->
<g id="node13" class="node"><title>\\DataSift_StreamConsumer_HTTP</title>
<a xlink:href="lib.DataSift.StreamConsumer.HTTP.html" xlink:title="DataSift_StreamConsumer_HTTP" target="_parent">
<polygon fill="none" stroke="black" points="581,-898 375,-898 375,-862 581,-862 581,-898"/>
<text text-anchor="middle" x="478" y="-877.1" font-family="Courier,monospace" font-size="11.00">DataSift_StreamConsumer_HTTP</text>
</a>
</g>
<!-- \\DataSift_StreamConsumer_HTTP&#45;&gt;\\DataSift_StreamConsumer -->
<g id="edge17" class="edge"><title>\\DataSift_StreamConsumer_HTTP&#45;&gt;\\DataSift_StreamConsumer</title>
<path fill="none" stroke="black" d="M374.773,-880C332.657,-880 284.218,-880 242.787,-880"/>
<polygon fill="none" stroke="black" points="242.689,-876.5 232.689,-880 242.689,-883.5 242.689,-876.5"/>
</g>
<!-- \\DataSift_IStreamConsumerEventHandler -->
<g id="node14" class="node"><title>\\DataSift_IStreamConsumerEventHandler</title>
<a xlink:href="lib.DataSift.IStreamConsumerEventHandler.html" xlink:title="DataSift_IStreamConsumerEventHandler" target="_parent">
<polygon fill="none" stroke="black" points="276,-790 16,-790 16,-754 276,-754 276,-790"/>
<text text-anchor="middle" x="146" y="-769.1" font-family="Courier,monospace" font-size="11.00">DataSift_IStreamConsumerEventHandler</text>
</a>
</g>
<!-- \\DataSift_Historic -->
<g id="node15" class="node"><title>\\DataSift_Historic</title>
<a xlink:href="lib.DataSift.Historic.html" xlink:title="DataSift_Historic" target="_parent">
<polygon fill="none" stroke="black" points="543,-304 413,-304 413,-268 543,-268 543,-304"/>
<text text-anchor="middle" x="478" y="-283.1" font-family="Courier,monospace" font-size="11.00">DataSift_Historic</text>
</a>
</g>
<!-- \\DataSift_Push_Definition -->
<g id="node16" class="node"><title>\\DataSift_Push_Definition</title>
<a xlink:href="lib.DataSift.Push.Definition.html" xlink:title="DataSift_Push_Definition" target="_parent">
<polygon fill="none" stroke="black" points="235,-844 57,-844 57,-808 235,-808 235,-844"/>
<text text-anchor="middle" x="146" y="-823.1" font-family="Courier,monospace" font-size="11.00">DataSift_Push_Definition</text>
</a>
</g>
<!-- \\DataSift_Push_Subscription -->
<g id="node17" class="node"><title>\\DataSift_Push_Subscription</title>
<a xlink:href="lib.DataSift.Push.Subscription.html" xlink:title="DataSift_Push_Subscription" target="_parent">
<polygon fill="none" stroke="black" points="574,-844 382,-844 382,-808 574,-808 574,-844"/>
<text text-anchor="middle" x="478" y="-823.1" font-family="Courier,monospace" font-size="11.00">DataSift_Push_Subscription</text>
</a>
</g>
<!-- \\DataSift_Push_Subscription&#45;&gt;\\DataSift_Push_Definition -->
<g id="edge19" class="edge"><title>\\DataSift_Push_Subscription&#45;&gt;\\DataSift_Push_Definition</title>
<path fill="none" stroke="black" d="M381.972,-826C339.244,-826 288.945,-826 245.788,-826"/>
<polygon fill="none" stroke="black" points="245.554,-822.5 235.553,-826 245.553,-829.5 245.554,-822.5"/>
</g>
<!-- \\DataSift_User -->
<g id="node18" class="node"><title>\\DataSift_User</title>
<a xlink:href="lib.DataSift.User.html" xlink:title="DataSift_User" target="_parent">
<polygon fill="none" stroke="black" points="530,-196 426,-196 426,-160 530,-160 530,-196"/>
<text text-anchor="middle" x="478" y="-175.1" font-family="Courier,monospace" font-size="11.00">DataSift_User</text>
</a>
</g>
<!-- \\Env -->
<g id="node19" class="node"><title>\\Env</title>
<a xlink:href="examples.push.env.html" xlink:title="Env" target="_parent">
<polygon fill="none" stroke="black" points="505,-142 451,-142 451,-106 505,-106 505,-142"/>
<text text-anchor="middle" x="478" y="-121.1" font-family="Courier,monospace" font-size="11.00">Env</text>
</a>
</g>
<!-- \\EventHandler -->
<g id="node20" class="node"><title>\\EventHandler</title>
<a xlink:href="examples.football.html" xlink:title="EventHandler" target="_parent">
<polygon fill="none" stroke="black" points="527,-790 429,-790 429,-754 527,-754 527,-790"/>
<text text-anchor="middle" x="478" y="-769.1" font-family="Courier,monospace" font-size="11.00">EventHandler</text>
</a>
</g>
<!-- \\EventHandler&#45;&gt;\\DataSift_IStreamConsumerEventHandler -->
<g id="edge23" class="edge"><title>\\EventHandler&#45;&gt;\\DataSift_IStreamConsumerEventHandler</title>
<path fill="none" stroke="black" stroke-dasharray="1,5" d="M428.655,-772C390.891,-772 336.84,-772 286.099,-772"/>
<polygon fill="none" stroke="black" points="286.001,-768.5 276.001,-772 286.001,-775.5 286.001,-768.5"/>
</g>
</g>
</svg>
