<?xml version="1.0" encoding="UTF-8" standalone="no"?>
<!DOCTYPE svg PUBLIC "-//W3C//DTD SVG 1.1//EN"
 "http://www.w3.org/Graphics/SVG/1.1/DTD/svg11.dtd">
<!-- Generated by graphviz version 2.26.3 (20100126.1600)
 -->
<!-- Title: G Pages: 1 -->
<svg width="552pt" height="890pt"
 viewBox="0.00 0.00 552.00 890.00" xmlns="http://www.w3.org/2000/svg" xmlns:xlink="http://www.w3.org/1999/xlink">
<g id="graph1" class="graph" transform="scale(1 1) rotate(0) translate(4 886)">
<title>G</title>
<polygon fill="white" stroke="white" points="-4,5 -4,-886 549,-886 549,5 -4,5"/>
<g id="graph2" class="cluster"><title>cluster_global</title>
<polyline fill="none" stroke="gray" points="20,-44 524,-44 "/>
<path fill="none" stroke="gray" d="M524,-44C530,-44 536,-50 536,-56"/>
<polyline fill="none" stroke="gray" points="536,-56 536,-862 "/>
<path fill="none" stroke="gray" d="M536,-862C536,-868 530,-874 524,-874"/>
<polyline fill="none" stroke="gray" points="524,-874 20,-874 "/>
<path fill="none" stroke="gray" d="M20,-874C14,-874 8,-868 8,-862"/>
<polyline fill="none" stroke="gray" points="8,-862 8,-56 "/>
<path fill="none" stroke="gray" d="M8,-56C8,-50 14,-44 20,-44"/>
<text text-anchor="middle" x="272" y="-860.1" font-family="Times Roman,serif" font-size="11.00" fill="gray">global</text>
</g>
<!-- \\DataSift_ApiClient -->
<g id="node2" class="node"><title>\\DataSift_ApiClient</title>
<a xlink:href="DataSift.ApiClient.html" xlink:title="DataSift_ApiClient" target="_parent">
<polygon fill="none" stroke="black" points="467,-844 329,-844 329,-808 467,-808 467,-844"/>
<text text-anchor="middle" x="398" y="-823.1" font-family="Courier,monospace" font-size="11.00">DataSift_ApiClient</text>
</a>
</g>
<!-- \\DataSift_Definition -->
<g id="node3" class="node"><title>\\DataSift_Definition</title>
<a xlink:href="DataSift.Definition.html" xlink:title="DataSift_Definition" target="_parent">
<polygon fill="none" stroke="black" points="470,-790 326,-790 326,-754 470,-754 470,-790"/>
<text text-anchor="middle" x="398" y="-769.1" font-family="Courier,monospace" font-size="11.00">DataSift_Definition</text>
</a>
</g>
<!-- \\DataSift_User -->
<g id="node4" class="node"><title>\\DataSift_User</title>
<a xlink:href="DataSift.User.html" xlink:title="DataSift_User" target="_parent">
<polygon fill="none" stroke="black" points="450,-736 346,-736 346,-700 450,-700 450,-736"/>
<text text-anchor="middle" x="398" y="-715.1" font-family="Courier,monospace" font-size="11.00">DataSift_User</text>
</a>
</g>
<!-- \\DataSift_StreamConsumer -->
<g id="node5" class="node"><title>\\DataSift_StreamConsumer</title>
<a xlink:href="DataSift.StreamConsumer.html" xlink:title="«abstract»&lt;br/&gt;DataSift_StreamConsumer" target="_parent">
<polygon fill="none" stroke="black" points="192,-682 20,-682 20,-646 192,-646 192,-682"/>
<text text-anchor="start" x="72" y="-669.433" font-family="Courier,monospace" font-size="11.00">«abstract»</text>
<text text-anchor="start" x="28" y="-656.233" font-family="Courier,monospace" font-size="11.00">DataSift_StreamConsumer</text>
</a>
</g>
<!-- \\DataSift_StreamConsumer_HTTP -->
<g id="node6" class="node"><title>\\DataSift_StreamConsumer_HTTP</title>
<a xlink:href="DataSift.StreamConsumer.HTTP.html" xlink:title="DataSift_StreamConsumer_HTTP" target="_parent">
<polygon fill="none" stroke="black" points="501,-682 295,-682 295,-646 501,-646 501,-682"/>
<text text-anchor="middle" x="398" y="-661.1" font-family="Courier,monospace" font-size="11.00">DataSift_StreamConsumer_HTTP</text>
</a>
</g>
<!-- \\DataSift_StreamConsumer_HTTP&#45;&gt;\\DataSift_StreamConsumer -->
<g id="edge3" class="edge"><title>\\DataSift_StreamConsumer_HTTP&#45;&gt;\\DataSift_StreamConsumer</title>
<path fill="none" stroke="black" d="M294.641,-664C264.849,-664 232.461,-664 203.065,-664"/>
<polygon fill="none" stroke="black" points="202.801,-660.5 192.801,-664 202.801,-667.5 202.801,-660.5"/>
</g>
<!-- \\DataSift_Exception_AccessDenied -->
<g id="node7" class="node"><title>\\DataSift_Exception_AccessDenied</title>
<a xlink:href="DataSift.Exception.AccessDenied.html" xlink:title="DataSift_Exception_AccessDenied" target="_parent">
<polygon fill="none" stroke="black" points="511,-574 285,-574 285,-538 511,-538 511,-574"/>
<text text-anchor="middle" x="398" y="-553.1" font-family="Courier,monospace" font-size="11.00">DataSift_Exception_AccessDenied</text>
</a>
</g>
<!-- \\Exception -->
<g id="node21" class="node"><title>\\Exception</title>
<ellipse fill="none" stroke="black" cx="106" cy="-18" rx="62.9325" ry="18.3848"/>
<text text-anchor="middle" x="106" y="-14.4" font-family="Times Roman,serif" font-size="14.00" fill="gray">\Exception</text>
</g>
<!-- \\DataSift_Exception_AccessDenied&#45;&gt;\\Exception -->
<g id="edge5" class="edge"><title>\\DataSift_Exception_AccessDenied&#45;&gt;\\Exception</title>
<path fill="none" stroke="black" d="M284.914,-542.313C278.706,-538.674 272.982,-534.283 268,-529 117.282,-369.182 343.901,-202.428 196,-40 190.594,-34.0627 183.873,-29.6044 176.557,-26.274"/>
<polygon fill="none" stroke="black" points="177.616,-22.9319 167.025,-22.6325 175.118,-29.4709 177.616,-22.9319"/>
</g>
<!-- \\DataSift_Exception_RateLimitExceeded -->
<g id="node8" class="node"><title>\\DataSift_Exception_RateLimitExceeded</title>
<a xlink:href="DataSift.Exception.RateLimitExceeded.html" xlink:title="DataSift_Exception_RateLimitExceeded" target="_parent">
<polygon fill="none" stroke="black" points="528,-520 268,-520 268,-484 528,-484 528,-520"/>
<text text-anchor="middle" x="398" y="-499.1" font-family="Courier,monospace" font-size="11.00">DataSift_Exception_RateLimitExceeded</text>
</a>
</g>
<!-- \\DataSift_Exception_RateLimitExceeded&#45;&gt;\\Exception -->
<g id="edge7" class="edge"><title>\\DataSift_Exception_RateLimitExceeded&#45;&gt;\\Exception</title>
<path fill="none" stroke="black" d="M278.397,-483.948C274.68,-481.296 271.193,-478.326 268,-475 132.285,-333.638 329.224,-183.712 196,-40 190.541,-34.1111 183.788,-29.6824 176.455,-26.3683"/>
<polygon fill="none" stroke="black" points="177.499,-23.021 166.908,-22.7404 175.012,-29.5644 177.499,-23.021"/>
</g>
<!-- \\DataSift_Exception_InvalidData -->
<g id="node9" class="node"><title>\\DataSift_Exception_InvalidData</title>
<a xlink:href="DataSift.Exception.InvalidData.html" xlink:title="DataSift_Exception_InvalidData" target="_parent">
<polygon fill="none" stroke="black" points="507,-466 289,-466 289,-430 507,-430 507,-466"/>
<text text-anchor="middle" x="398" y="-445.1" font-family="Courier,monospace" font-size="11.00">DataSift_Exception_InvalidData</text>
</a>
</g>
<!-- \\DataSift_Exception_InvalidData&#45;&gt;\\Exception -->
<g id="edge9" class="edge"><title>\\DataSift_Exception_InvalidData&#45;&gt;\\Exception</title>
<path fill="none" stroke="black" d="M288.483,-435.888C280.941,-431.975 273.976,-427.085 268,-421 147.246,-298.052 314.586,-165.04 196,-40 190.474,-34.1736 183.681,-29.783 176.325,-26.4897"/>
<polygon fill="none" stroke="black" points="177.351,-23.136 166.759,-22.8796 174.88,-29.6851 177.351,-23.136"/>
</g>
<!-- \\DataSift_Exception_APIError -->
<g id="node10" class="node"><title>\\DataSift_Exception_APIError</title>
<a xlink:href="DataSift.Exception.APIError.html" xlink:title="DataSift_Exception_APIError" target="_parent">
<polygon fill="none" stroke="black" points="497,-412 299,-412 299,-376 497,-376 497,-412"/>
<text text-anchor="middle" x="398" y="-391.1" font-family="Courier,monospace" font-size="11.00">DataSift_Exception_APIError</text>
</a>
</g>
<!-- \\DataSift_Exception_APIError&#45;&gt;\\Exception -->
<g id="edge11" class="edge"><title>\\DataSift_Exception_APIError&#45;&gt;\\Exception</title>
<path fill="none" stroke="black" d="M298.478,-386.066C287.153,-381.659 276.608,-375.506 268,-367 162.146,-262.403 300.01,-146.432 196,-40 190.388,-34.257 183.542,-29.9172 176.157,-26.6518"/>
<polygon fill="none" stroke="black" points="177.159,-23.2899 166.566,-23.0655 174.707,-29.8464 177.159,-23.2899"/>
</g>
<!-- \\DataSift_Exception_StreamError -->
<g id="node11" class="node"><title>\\DataSift_Exception_StreamError</title>
<a xlink:href="DataSift.Exception.StreamError.html" xlink:title="DataSift_Exception_StreamError" target="_parent">
<polygon fill="none" stroke="black" points="507,-358 289,-358 289,-322 507,-322 507,-358"/>
<text text-anchor="middle" x="398" y="-337.1" font-family="Courier,monospace" font-size="11.00">DataSift_Exception_StreamError</text>
</a>
</g>
<!-- \\DataSift_Exception_StreamError&#45;&gt;\\Exception -->
<g id="edge13" class="edge"><title>\\DataSift_Exception_StreamError&#45;&gt;\\Exception</title>
<path fill="none" stroke="black" d="M288.33,-327.103C280.92,-323.348 274.022,-318.71 268,-313 176.947,-226.657 285.53,-127.922 196,-40 190.271,-34.3736 183.353,-30.105 175.929,-26.8786"/>
<polygon fill="none" stroke="black" points="176.899,-23.5057 166.306,-23.3254 174.475,-30.0724 176.899,-23.5057"/>
</g>
<!-- \\DataSift_Exception_CompileFailed -->
<g id="node12" class="node"><title>\\DataSift_Exception_CompileFailed</title>
<a xlink:href="DataSift.Exception.CompileFailed.html" xlink:title="DataSift_Exception_CompileFailed" target="_parent">
<polygon fill="none" stroke="black" points="514,-304 282,-304 282,-268 514,-268 514,-304"/>
<text text-anchor="middle" x="398" y="-283.1" font-family="Courier,monospace" font-size="11.00">DataSift_Exception_CompileFailed</text>
</a>
</g>
<!-- \\DataSift_Exception_CompileFailed&#45;&gt;\\Exception -->
<g id="edge15" class="edge"><title>\\DataSift_Exception_CompileFailed&#45;&gt;\\Exception</title>
<path fill="none" stroke="black" d="M281.38,-268.747C276.621,-265.916 272.126,-262.685 268,-259 191.58,-190.752 271.215,-109.573 196,-40 190.105,-34.5473 183.087,-30.3847 175.608,-27.2163"/>
<polygon fill="none" stroke="black" points="176.531,-23.8283 165.937,-23.7124 174.147,-30.4097 176.531,-23.8283"/>
</g>
<!-- \\DataSift_Exception_NotYetImplemented -->
<g id="node13" class="node"><title>\\DataSift_Exception_NotYetImplemented</title>
<a xlink:href="DataSift.Exception.NotYetImplemented.html" xlink:title="DataSift_Exception_NotYetImplemented" target="_parent">
<polygon fill="none" stroke="black" points="528,-250 268,-250 268,-214 528,-214 528,-250"/>
<text text-anchor="middle" x="398" y="-229.1" font-family="Courier,monospace" font-size="11.00">DataSift_Exception_NotYetImplemented</text>
</a>
</g>
<!-- \\DataSift_Exception_NotYetImplemented&#45;&gt;\\Exception -->
<g id="edge17" class="edge"><title>\\DataSift_Exception_NotYetImplemented&#45;&gt;\\Exception</title>
<path fill="none" stroke="black" d="M281.187,-213.921C276.541,-211.302 272.116,-208.342 268,-205 205.889,-154.561 257.219,-91.5165 196,-40 189.788,-34.7723 182.526,-30.7509 174.871,-27.6632"/>
<polygon fill="none" stroke="black" points="175.976,-24.342 165.382,-24.3417 173.664,-30.949 175.976,-24.342"/>
</g>
<!-- \\DataSift_Push_Definition -->
<g id="node14" class="node"><title>\\DataSift_Push_Definition</title>
<a xlink:href="DataSift.Push.Definition.html" xlink:title="DataSift_Push_Definition" target="_parent">
<polygon fill="none" stroke="black" points="195,-628 17,-628 17,-592 195,-592 195,-628"/>
<text text-anchor="middle" x="106" y="-607.1" font-family="Courier,monospace" font-size="11.00">DataSift_Push_Definition</text>
</a>
</g>
<!-- \\DataSift_Push_Subscription -->
<g id="node15" class="node"><title>\\DataSift_Push_Subscription</title>
<a xlink:href="DataSift.Push.Subscription.html" xlink:title="DataSift_Push_Subscription" target="_parent">
<polygon fill="none" stroke="black" points="494,-628 302,-628 302,-592 494,-592 494,-628"/>
<text text-anchor="middle" x="398" y="-607.1" font-family="Courier,monospace" font-size="11.00">DataSift_Push_Subscription</text>
</a>
</g>
<!-- \\DataSift_Push_Subscription&#45;&gt;\\DataSift_Push_Definition -->
<g id="edge19" class="edge"><title>\\DataSift_Push_Subscription&#45;&gt;\\DataSift_Push_Definition</title>
<path fill="none" stroke="black" d="M301.984,-610C271.219,-610 237.088,-610 206.043,-610"/>
<polygon fill="none" stroke="black" points="205.642,-606.5 195.642,-610 205.642,-613.5 205.642,-606.5"/>
</g>
<!-- \\DataSift_IStreamConsumerEventHandler -->
<g id="node16" class="node"><title>\\DataSift_IStreamConsumerEventHandler</title>
<a xlink:href="DataSift.IStreamConsumerEventHandler.html" xlink:title="DataSift_IStreamConsumerEventHandler" target="_parent">
<polygon fill="none" stroke="black" points="528,-196 268,-196 268,-160 528,-160 528,-196"/>
<text text-anchor="middle" x="398" y="-175.1" font-family="Courier,monospace" font-size="11.00">DataSift_IStreamConsumerEventHandler</text>
</a>
</g>
<!-- \\DataSift_MockApiClient -->
<g id="node17" class="node"><title>\\DataSift_MockApiClient</title>
<a xlink:href="DataSift.MockApiClient.html" xlink:title="DataSift_MockApiClient" target="_parent">
<polygon fill="none" stroke="black" points="480,-142 316,-142 316,-106 480,-106 480,-142"/>
<text text-anchor="middle" x="398" y="-121.1" font-family="Courier,monospace" font-size="11.00">DataSift_MockApiClient</text>
</a>
</g>
<!-- \\DataSift_Historic -->
<g id="node18" class="node"><title>\\DataSift_Historic</title>
<a xlink:href="DataSift.Historic.html" xlink:title="DataSift_Historic" target="_parent">
<polygon fill="none" stroke="black" points="463,-88 333,-88 333,-52 463,-52 463,-88"/>
<text text-anchor="middle" x="398" y="-67.1" font-family="Courier,monospace" font-size="11.00">DataSift_Historic</text>
</a>
</g>
</g>
</svg>
